<svg width="200" height="32" fill="none" xmlns="http://www.w3.org/2000/svg"><path fill-rule="evenodd" clip-rule="evenodd" d="M27.305 5.776l-7.102 4.595 9.205 2.25-4.673 19.114L0 25.688 4.673 6.574l8.864 2.167-3.748-7.109L12.885 0l4.3 8.156 8.219-5.318 1.9 2.938zm-2.128 9.414L7.24 10.805 4.231 23.12l17.935 4.385 3.01-12.314zm98.727-5.217l3.19.858 1.254 11.44 7.062-9.218 2.926.792 1.518 11.506 6.798-9.284 3.19.858-9.746 13.332-2.794-.748-1.562-11.792-7.26 9.416-2.794-.748-1.782-16.412zm-67.77 1.232l3.3.88L61.61 24.14l7.898-9.35 3.3.902-11.022 12.98-2.596-.704-3.058-16.764zM45.93 16.023l-5.39-1.43.814-2.992 13.728 3.696-.814 2.97-5.368-1.452-3.19 11.902-2.97-.792 3.19-11.902zM77.888 26.45c.704.895 1.709 1.518 3.014 1.87.616.161 1.18.242 1.694.242 1.056 0 1.958-.279 2.706-.836.748-.572 1.261-1.379 1.54-2.42.117-.44.176-.836.176-1.188 0-.85-.257-1.613-.77-2.288-.513-.69-1.24-1.35-2.178-1.98-.85-.557-1.437-.99-1.76-1.298-.323-.308-.484-.623-.484-.946 0-.117.022-.242.066-.374.073-.308.22-.543.44-.704.235-.162.52-.242.858-.242.25 0 .528.044.836.132.645.176 1.115.47 1.408.88.308.41.447.953.418 1.628l2.97-.396c.044-1.247-.286-2.317-.99-3.212-.69-.895-1.687-1.518-2.992-1.87a6.732 6.732 0 00-1.694-.242c-1.056 0-1.958.286-2.706.858-.748.557-1.261 1.357-1.54 2.398-.117.44-.176.836-.176 1.188 0 .85.257 1.62.77 2.31.513.675 1.24 1.327 2.178 1.958.85.557 1.437.99 1.76 1.298.323.308.484.623.484.946 0 .117-.022.242-.066.374a1.137 1.137 0 01-.462.704c-.22.161-.499.242-.836.242-.25 0-.528-.044-.836-.132-1.261-.337-1.87-1.174-1.826-2.508l-2.97.396c-.044 1.246.279 2.317.968 3.212zm14.784-14.674l2.97.792-1.606 5.962 6.534 1.738 1.584-5.94 2.992.792-4.004 14.872-2.97-.792 1.606-5.962-6.534-1.738-1.584 5.94-2.992-.792 4.004-14.872zm15.717 15.026c.865.704 1.877 1.21 3.036 1.518.704.19 1.422.286 2.156.286a7.602 7.602 0 003.19-.682 7.213 7.213 0 002.552-2.002c.718-.865 1.232-1.877 1.54-3.036.19-.704.286-1.423.286-2.156 0-1.13-.235-2.193-.704-3.19a6.998 6.998 0 00-1.98-2.552c-.866-.719-1.878-1.232-3.036-1.54a8.216 8.216 0 00-2.156-.286c-1.13 0-2.193.235-3.19.704a7.178 7.178 0 00-2.574 1.98c-.704.865-1.21 1.877-1.518 3.036a8.197 8.197 0 00-.286 2.156c0 1.13.227 2.192.682 3.19a7.406 7.406 0 002.002 2.574zm5.148-1.276c-.396 0-.829-.059-1.298-.176-1.071-.279-1.914-.814-2.53-1.606a4.321 4.321 0 01-.924-2.728c0-.41.058-.85.176-1.32.278-1.07.806-1.914 1.584-2.53a4.32 4.32 0 012.728-.924c.484 0 .931.059 1.342.176 1.056.279 1.892.814 2.508 1.606.63.777.946 1.68.946 2.706 0 .484-.059.931-.176 1.342-.279 1.07-.814 1.914-1.606 2.53-.792.616-1.709.924-2.75.924zm44.245-.616l7.832 2.09.44 2.662 3.278.88-2.904-16.72-2.75-.748-10.868 13.024 3.256.88 1.716-2.068zm6.182-7.392l1.056 6.138-5.06-1.342 4.004-4.796zm11.615-5.544l5.83 1.562c1.247.337 2.23.968 2.948 1.892.734.91 1.1 1.965 1.1 3.168 0 .44-.073.953-.22 1.54-.322 1.217-.946 2.192-1.87 2.926-.909.719-1.965 1.078-3.168 1.078-.454 0-.975-.073-1.562-.22l-2.86-.77-1.188 4.488-2.992-.792 3.982-14.872zm3.85 8.976c.294.073.536.11.726.11.528 0 .976-.154 1.342-.462.382-.308.638-.726.77-1.254.074-.264.11-.506.11-.726 0-.514-.154-.953-.462-1.32-.293-.381-.726-.645-1.298-.792l-2.86-.77-1.188 4.444 2.86.77zm15.58-7.414l-5.83-1.562-3.982 14.872 2.992.792 1.188-4.488 2.86.77c.587.146 1.107.22 1.562.22 1.203 0 2.259-.36 3.168-1.078.924-.733 1.547-1.709 1.87-2.926.147-.587.22-1.1.22-1.54 0-1.203-.367-2.259-1.1-3.168-.719-.924-1.701-1.555-2.948-1.892zm-1.254 7.524c-.191 0-.433-.037-.726-.11l-2.86-.77 1.188-4.444 2.86.77c.572.146 1.005.41 1.298.792.308.367.462.806.462 1.32 0 .22-.037.462-.11.726-.132.528-.389.946-.77 1.254-.367.308-.814.462-1.342.462z" fill="#fff"/></svg>